<?xml version="1.0" encoding="utf-8"?>
<!-- Generator: Adobe Illustrator 18.0.0, SVG Export Plug-In . SVG Version: 6.00 Build 0)  -->
<!DOCTYPE svg PUBLIC "-//W3C//DTD SVG 1.1//EN" "http://www.w3.org/Graphics/SVG/1.1/DTD/svg11.dtd">
<svg version="1.1" id="Layer_1" xmlns="http://www.w3.org/2000/svg" xmlns:xlink="http://www.w3.org/1999/xlink" x="0px" y="0px"
	 viewBox="0 304.9 595.3 232" enable-background="new 0 304.9 595.3 232" xml:space="preserve">
<g>
	<path fill="#FFFFFF" d="M208.9,395.2l16.6-17.6h8.6l-19.3,19.9l19.3,24.1h-8.6l-15.3-19.7l-1.3,1.5v18.3h-6.5v-44.1h6.5V395.2z"/>
	<path fill="#FFFFFF" d="M274.6,383.9h-17v10.7h16.6v6.3h-16.6v14.7h17v6.3h-23.5v-44.3h23.5V383.9z"/>
	<path fill="#FFFFFF" d="M292.9,421.7l9-47.7l14.7,34.4l15.1-34.4l8,47.7h-6.5L329,395l-12.6,28.8L304.3,395l-4.6,26.7
		C299.6,421.7,292.9,421.7,292.9,421.7z"/>
	<path fill="#FFFFFF" d="M366.4,403.8v18.1h-6.5v-44.3h7.3c3.6,0,6.3,0.2,8,0.8c1.9,0.4,3.4,1.5,4.8,2.9c2.5,2.5,3.6,5.7,3.6,9.4
		c0,4-1.3,7.3-4,9.7c-2.5,2.3-6.1,3.6-10.5,3.6h-2.7V403.8z M366.4,397.5h2.3c5.9,0,8.8-2.3,8.8-7.1c0-4.6-2.9-6.9-9-6.9h-2.1V397.5
		z"/>
	<path fill="#FFFFFF" d="M413.4,383.9v38h-6.5v-38h-9.9v-6.3h26v6.3H413.4z"/>
	<path fill="#FFFFFF" d="M436.7,399.4c0-6.1,2.1-11.1,6.5-15.5s9.7-6.5,15.7-6.5s11.3,2.1,15.5,6.5c4.4,4.4,6.5,9.7,6.5,15.7
		c0,6.1-2.1,11.3-6.5,15.7c-4.4,4.4-9.7,6.5-16,6.5c-5.5,0-10.5-1.9-14.7-5.7C439.1,411.8,436.7,406.1,436.7,399.4z M443.3,399.4
		c0,4.8,1.7,8.6,4.8,11.8s6.7,4.6,10.9,4.6c4.4,0,8.2-1.5,11.3-4.6s4.6-6.9,4.6-11.5c0-4.6-1.5-8.4-4.6-11.5
		c-2.9-3.1-6.7-4.6-11.1-4.6s-8.2,1.5-11.1,4.6C444.7,391,443.3,395,443.3,399.4z"/>
	<path fill="#FFFFFF" d="M498.5,421.7v-47.2l32.3,33.8v-30.7h6.7v46.8l-32.3-33.6v30.9H498.5z"/>
	<g>
		<g>
			<path fill="#FFFFFF" d="M285.1,460.7h12.6v-11.5h4.4v29.4h-4.4v-13.6h-12.6v13.6h-4.4v-29.4h4.4V460.7z"/>
			<path fill="#FFFFFF" d="M315.6,463.9c0-4.2,1.5-7.8,4.6-10.7c2.9-2.9,6.7-4.4,10.9-4.4c4.2,0,7.8,1.5,10.7,4.4
				c2.9,2.9,4.4,6.5,4.4,10.7c0,4.2-1.5,7.8-4.6,10.7c-2.9,2.9-6.7,4.4-10.9,4.4c-3.8,0-7.1-1.3-10.3-4
				C317.1,472.3,315.6,468.5,315.6,463.9z M320,463.9c0,3.1,1,5.9,3.4,8c2.1,2.1,4.6,3.1,7.6,3.1c3.1,0,5.7-1,7.8-3.1
				c2.1-2.1,3.1-4.8,3.1-7.8c0-3.1-1-5.7-3.1-7.8s-4.6-3.1-7.8-3.1s-5.7,1-7.8,3.1C321.1,458.2,320,460.7,320,463.9z"/>
			<path fill="#FFFFFF" d="M358.4,478.6l6.1-31.5l10.1,22.7l10.5-22.7l5.5,31.5h-4.6l-2.7-17.6l-8.6,19.1l-8.4-19.1l-3.1,17.6H358.4
				z"/>
			<path fill="#FFFFFF" d="M420.8,453.4H409v7.1h11.3v4.2H409v9.9h11.8v4.2h-16.2v-29.4h16.2V453.4z"/>
			<path fill="#FFFFFF" d="M451,453.6l-3.6,2.1c-0.6-1.3-1.3-1.9-1.9-2.3c-0.6-0.4-1.5-0.6-2.5-0.6c-1.3,0-2.3,0.4-3.1,1
				s-1.3,1.5-1.3,2.5c0,1.5,1,2.5,3.1,3.4l2.9,1.3c2.3,1,4.2,2.1,5.2,3.6c1,1.5,1.7,3.1,1.7,5c0,2.7-0.8,4.8-2.7,6.7
				c-1.9,1.7-4,2.7-6.7,2.7c-2.5,0-4.6-0.8-6.3-2.3s-2.7-3.6-3.1-6.3l4.4-1c0.2,1.7,0.6,2.9,1,3.6c0.8,1.3,2.3,1.9,4,1.9
				c1.5,0,2.5-0.4,3.4-1.5c0.8-0.8,1.5-2.1,1.5-3.6c0-0.6,0-1-0.2-1.5c-0.2-0.4-0.4-0.8-0.8-1.3c-0.4-0.4-0.8-0.8-1.3-1
				c-0.6-0.4-1.3-0.6-1.9-1l-2.7-1.3c-4-1.7-6.1-4.2-6.1-7.3c0-2.1,0.8-4,2.5-5.5s3.8-2.3,6.3-2.3
				C446.4,448.8,449.1,450.4,451,453.6z"/>
		</g>
		<rect x="251.1" y="460.7" fill="#FFFFFF" width="21.4" height="4"/>
		<rect x="459.8" y="460.7" fill="#FFFFFF" width="21.4" height="4"/>
	</g>
</g>
<path fill="#FFFFFF" d="M58.2,363.1v115.7h115.9V363.1H58.2z M151,464.5h-6.5v-19.9H126v19.9h-6.3v-42.6h6.5v16.6h18.5v-16.6h6.5
	v42.6H151z M155.4,426.5l-39.3-39.9l-34.6,35.3H88v17l16.6-17h8.6l-19.3,19.3l19.3,23.3h-8.6l-15.3-18.9l-1.3,1.3v17.6h-6.5v-42.6
	l-4.4,4.4l-4.6-4.6l9-9.2l0,0v-21.2H88v14.7l28.1-28.8l0,0l0,0l43.7,44.5L155.4,426.5z"/>
</svg>
