<?xml version="1.0" encoding="UTF-8"?>
<svg id="Layer_2" data-name="Layer 2" xmlns="http://www.w3.org/2000/svg" viewBox="0 0 166.27 166.27">
  <defs>
    <style>
      .cls-1 {
        fill: none;
      }

      .cls-1, .cls-2 {
        stroke: #fff;
        stroke-linecap: round;
        stroke-linejoin: round;
      }

      .cls-2 {
        fill: #fff;
      }

      .cls-3 {
        fill: #cccccb;
        stroke: #cccccb;
        stroke-miterlimit: 10;
      }
    </style>
  </defs>
  <g id="Layer_2-2" data-name="Layer 2">
    <circle class="cls-3" cx="83.14" cy="83.14" r="82.64"/>
    <g>
      <circle class="cls-1" cx="83.9" cy="83.24" r="66.62"/>
      <path class="cls-2" d="m105.96,88.79c-6.53,6.22-13.8,11.71-21.93,16.38-8.71-4.88-16.15-10.66-22.08-17.49,2.36-9.56,5.51-18.16,10.06-25.08l26.11.19c3.77,8.08,6.29,16.8,7.83,26.01Z"/>
      <path class="cls-2" d="m57,44.03l-18.09,3.82-2.68-11.16c3.7-4.46,15.33-12.66,21.7-14.83l10.53,5.85-11.47,16.32Z"/>
      <path class="cls-2" d="m112.34,45.7l-9.74-16.78,10.48-5.57c7.25,3.45,14.57,9.02,20.58,15.61l-1.89,12.07-19.44-5.33Z"/>
      <path class="cls-2" d="m128.62,98.41l13.26-14.84,8.07,8.46c-1.4,9.43-4.07,17.61-8.62,25.01l-11.31,1.43-1.38-20.06Z"/>
      <path class="cls-2" d="m84.22,130.37l17.65,7.71-4.71,10.46c-9.37,1.79-17.63,1.94-26.12.08l-5-10.48,18.18-7.77Z"/>
      <path class="cls-2" d="m38.72,97.65v20.61l-12.3-1.29c-4.69-8.3-7.65-16.99-8.61-25.63l8.79-8.32,12.12,14.64Z"/>
      <path class="cls-1" d="m66.04,138.14c-19.7-8.92-22.13-13.27-27.32-19.89"/>
      <line class="cls-1" x1="84.03" y1="105.16" x2="84.22" y2="130.37"/>
      <line class="cls-1" x1="38.72" y1="97.65" x2="61.95" y2="87.67"/>
      <line class="cls-1" x1="57" y1="44.03" x2="72.02" y2="62.59"/>
      <line class="cls-1" x1="98.13" y1="62.77" x2="112.34" y2="45.7"/>
      <line class="cls-1" x1="105.96" y1="88.79" x2="128.62" y2="98.41"/>
      <path class="cls-1" d="m141.88,83.57c-.24-12.91-3.19-24.03-10.1-32.54"/>
      <path class="cls-1" d="m68.47,27.72c11.59-2.75,23.06-2.73,34.13,1.2"/>
      <path class="cls-1" d="m26.6,83.01c.24-13.63,3.94-25.51,12.31-35.15"/>
      <path class="cls-1" d="m101.88,138.08c12.27-4.39,21.55-11.01,28.13-19.61"/>
    </g>
  </g>
</svg>